<svg xmlns="http://www.w3.org/2000/svg" xmlns:xlink="http://www.w3.org/1999/xlink" width="48" height="48" viewBox="0 0 48 48"><defs><clipPath id="b"><rect width="48" height="48"/></clipPath></defs><g id="a" clip-path="url(#b)"><path d="M29.19,7.4,28.12,7a3.143,3.143,0,0,1-1.87-1.87l-.4-1.07a.109.109,0,0,0-.12-.07.1.1,0,0,0-.07.07l-.4,1.07A3.143,3.143,0,0,1,23.39,7l-1.07.4a.109.109,0,0,0-.07.12.121.121,0,0,0,.07.07L23.39,8a3.143,3.143,0,0,1,1.87,1.87l.4,1.07a.109.109,0,0,0,.12.07.121.121,0,0,0,.07-.07l.4-1.07A3.143,3.143,0,0,1,28.12,8l1.07-.4a.109.109,0,0,0,.07-.12.114.114,0,0,0-.07-.08Z" transform="translate(-10.26 1.003)" fill="#14379b"/><path d="M21.22,1.94l-.61-.23A1.771,1.771,0,0,1,19.54.64L19.31.03A.061.061,0,0,0,19.24,0q-.03.015-.03.03l-.23.61a1.771,1.771,0,0,1-1.07,1.07l-.61.23a.055.055,0,0,0-.03.08q.015.03.03.03l.61.23a1.771,1.771,0,0,1,1.07,1.07l.23.61a.055.055,0,0,0,.08.03q.03-.015.03-.03l.23-.61a1.771,1.771,0,0,1,1.07-1.07l.61-.23a.055.055,0,0,0,.03-.08A.138.138,0,0,0,21.22,1.94Z" transform="translate(4.74 5.003)" fill="#14379b"/><path d="M8.484,16.274a8.011,8.011,0,0,0,7.346-4.586,6.311,6.311,0,0,1-2.647.517,6.437,6.437,0,0,1-6.462-6.4A6.619,6.619,0,0,1,10.2.089a12.741,12.741,0,0,0-1.72-.1A8.2,8.2,0,0,0,.26,8.136h0a8.181,8.181,0,0,0,8.224,8.139Z" transform="translate(27.74 5.003)" fill="#14379b"/><g transform="translate(6 18)"><path d="M31.442,106.721a4.868,4.868,0,0,0-3.052,1.356h0s-.627-4.949-5.56-4.646a6.771,6.771,0,0,0-3.729,1.437h0a5.637,5.637,0,0,0-5.505-4.5,5.316,5.316,0,0,0-5.173,4.284h0A4.614,4.614,0,0,0,4,109.034a4.35,4.35,0,0,0,4.236,4.323l.191.005,23.245-.005a3.257,3.257,0,0,0,3.32-3.082,3.325,3.325,0,0,0-3.087-3.548c-.078-.005-.155-.009-.231-.009Z" transform="translate(-4 -100.37)" fill="#999"/></g></g></svg>