<svg xmlns="http://www.w3.org/2000/svg" xmlns:xlink="http://www.w3.org/1999/xlink" width="48" height="48" viewBox="0 0 48 48"><defs><clipPath id="b"><rect width="48" height="48"/></clipPath></defs><g id="a" clip-path="url(#b)"><g transform="translate(6 10)"><g transform="translate(0 12)"><path d="M40.815,50.779a2.445,2.445,0,0,0-2.139,1.21c0-.059.007-.114.007-.173a3.54,3.54,0,0,0-3.726-3.32,3.95,3.95,0,0,0-2.7,1.03,3.6,3.6,0,0,0-3.584-3.155,3.531,3.531,0,0,0-3.515,3.007,3.05,3.05,0,0,0-3.011,3.009,2.991,2.991,0,0,0,2.882,3l.13,0H40.61l.361,0c.064,0-.22,0-.156,0a2.316,2.316,0,0,0,2.414-2.255,2.108,2.108,0,0,0-2.259-2.356" transform="translate(-22.15 -46.37)" fill="#6e6e6e"/></g><path d="M3.5,10h.05A5.571,5.571,0,0,1,8.1,12.36a5.746,5.746,0,0,1,1.66-.24,5.428,5.428,0,0,1,3.62,1.16c.03-.01.05-.02.08-.03A5.584,5.584,0,0,1,18.5,10h.05a5.571,5.571,0,0,1,4.55,2.36,5.746,5.746,0,0,1,1.66-.24,5.469,5.469,0,0,1,4.11,1.59A3.481,3.481,0,0,0,31,10.56v-.07a3.543,3.543,0,0,0-3.32-3.66h-.23a3.561,3.561,0,0,0-3.14,1.88c0-.09.01-.18.01-.27a5.312,5.312,0,0,0-5.48-5.15,5.655,5.655,0,0,0-3.97,1.6A5.388,5.388,0,0,0,9.6,0,5.29,5.29,0,0,0,4.43,4.67,4.614,4.614,0,0,0,0,9.34a4.512,4.512,0,0,0,.29,1.72A5.464,5.464,0,0,1,3.5,10Z" transform="translate(3.002)" fill="#999"/><path d="M16.09,4.41a1.967,1.967,0,0,0-.42-.01h-.16a2.438,2.438,0,0,0-2.14,1.21c0-.06.01-.11.01-.17A3.523,3.523,0,0,0,9.66,2.13a3.96,3.96,0,0,0-2.7,1.03A3.6,3.6,0,0,0,3.38,0,3.534,3.534,0,0,0,0,2.44a4.626,4.626,0,0,1,.54-.03H.55a4.069,4.069,0,0,1,.78.02,4.122,4.122,0,0,1,3.6,4.5v.03a4.217,4.217,0,0,1-.69,2.06H15.52A2.315,2.315,0,0,0,17.93,6.8V6.76A2.112,2.112,0,0,0,16.09,4.41Z" transform="translate(18 12)" fill="#6e6e6e"/></g></g></svg>