<svg xmlns="http://www.w3.org/2000/svg" xmlns:xlink="http://www.w3.org/1999/xlink" width="48" height="48" viewBox="0 0 48 48"><defs><clipPath id="b"><rect width="48" height="48"/></clipPath></defs><g id="a" clip-path="url(#b)"><g transform="translate(13 2)"><path d="M10.18,0h1.64V4.99H10.18Z" fill="#fdbb11"/><path d="M-3,13.18H1.99v1.64H-3Z" fill="#fdbb11"/><path d="M20.01,13.18H25v1.64H20.01Z" fill="#fdbb11"/><path d="M20.27,3.57l1.16,1.16L17.94,8.22,16.78,7.06Z" fill="#fdbb11"/><path d="M1.73,3.57,5.22,7.06,4.05,8.21.57,4.73Z" fill="#fdbb11"/></g><g transform="translate(12 18)"><path d="M6.63-2a7.232,7.232,0,0,1,6.3,3.59,8.115,8.115,0,0,1,5.55-.08A7.289,7.289,0,0,0,19.37-2,7.37,7.37,0,0,0,12-9.37,7.37,7.37,0,0,0,4.63-2c0,.09.01.18.01.26A7.293,7.293,0,0,1,6.63-2Z" fill="#fdbb11"/></g><g transform="translate(9 18)"><path d="M31.442,106.721a4.868,4.868,0,0,0-3.052,1.356h0s-.627-4.949-5.56-4.646a6.771,6.771,0,0,0-3.729,1.437h0a5.637,5.637,0,0,0-5.505-4.5,5.316,5.316,0,0,0-5.173,4.284h0A4.614,4.614,0,0,0,4,109.034a4.35,4.35,0,0,0,4.236,4.323l.191.005,23.245-.005a3.257,3.257,0,0,0,3.32-3.082,3.325,3.325,0,0,0-3.087-3.548c-.078-.005-.155-.009-.231-.009Z" transform="translate(-4 -100.37)" fill="#b5b5b5"/></g></g></svg>